[Header]			# Header keywords are followed by a single value
FileType htr		# single word string
DataType HTRS		# Hierarchical translations followed by rotations and Scale
FileVersion 1		# integer
NumSegments 20		# integer
NumFrames 4		# integer
DataFrameRate 60	# integer
EulerRotationOrder ZYX	# one word string
CalibrationUnits mm	# one word string
RotationUnits Degrees	# one word string
GlobalAxisofGravity Y	# character, X or Y or Z
BoneLengthAxis Y
ScaleFactor 1.000000
[SegmentNames&Hierarchy]
#CHILD	PARENT
LowerTorso	GLOBAL
UpperTorso	LowerTorso
LCollarBone	UpperTorso
RCollarBone	UpperTorso
LUpArm	LCollarBone
RUpArm	RCollarBone
LLowArm	LUpArm
RLowArm	RUpArm
LHand	LLowArm
RHand	RLowArm
LPelvis	LowerTorso
RPelvis	LowerTorso
LThigh	LPelvis
RThigh	RPelvis
LLowLeg	LThigh
RLowLeg	RThigh
LFoot	LLowLeg
RFoot	RLowLeg
Neck	UpperTorso
Head	Neck
[BasePosition]
#SegmentName Tx, Ty, Tz, Rx, Ry, Rz, BoneLength
LowerTorso	0.000000	0.000000	0.000000	0.000000	0.000000	0.000000	247.497849
UpperTorso	0.000000	247.497849	0.000000	-3.483188	-0.016176	-0.898562	303.935425
LCollarBone	0.000000	303.935425	0.000000	-2.778975	2.380151	-103.909637	160.814774
RCollarBone	0.000000	303.935425	0.000000	1.923138	-2.431442	97.423370	173.085861
LUpArm	0.000000	160.814774	0.000000	9.905276	-0.146364	3.830753	266.228302
RUpArm	0.000000	173.085861	0.000000	3.559436	0.163580	4.186032	250.544907
LLowArm	0.000000	266.228302	0.000000	0.604391	2.460426	18.478745	239.401855
RLowArm	0.000000	250.544907	0.000000	-4.677841	-1.676118	-16.763147	247.676224
LHand	0.000000	239.401855	0.000000	-2.922581	-1.504997	-10.879651	178.693573
RHand	0.000000	247.676224	0.000000	8.087741	0.221451	14.771751	171.097885
LPelvis	0.000000	0.000000	0.000000	25.628080	-1.004481	-103.107483	127.213554
RPelvis	0.000000	0.000000	0.000000	7.212610	1.026056	95.806335	154.731140
LThigh	0.000000	127.213554	0.000000	-8.629928	-24.934669	-78.343170	392.414856
RThigh	0.000000	154.731140	0.000000	-0.087953	7.045837	82.361420	403.151337
LLowLeg	0.000000	392.414856	0.000000	-11.135172	-0.396179	6.207254	411.539612
RLowLeg	0.000000	403.151337	0.000000	-15.879393	-0.038285	-2.567663	396.965240
LFoot	0.000000	411.539612	0.000000	86.993790	-9.419292	-7.421347	182.020935
RFoot	0.000000	396.965240	0.000000	85.685738	19.489246	8.810133	181.714371
Neck	0.000000	303.935425	0.000000	26.917892	0.010495	-0.245093	141.112030
Head	0.000000	141.112030	0.000000	-34.290924	-1.751020	-3.852423	164.098740
#Beginning of Data. Separated by tabs.
[LowerTorso]
#Fr	Tx	Ty	Tz	Rx	Ry	Rz	SF
250	-492.623657	821.706726	1708.489624	-13.407166	66.972610	-21.034058	1.000000
251	-452.687134	826.641785	1722.040039	-14.346639	66.320023	-21.735640	1.000000
252	-412.491333	828.873108	1736.123047	-15.842995	65.558983	-23.028076	1.000000
253	-372.345215	828.267456	1750.665039	-17.846441	64.841896	-24.801672	1.000000
[UpperTorso]
#Fr	Tx	Ty	Tz	Rx	Ry	Rz	SF
250	0.000000	0.000000	0.000000	21.422817	23.957048	11.040760	1.000000
251	0.000000	0.000000	0.000000	20.532902	25.245621	10.320104	1.000000
252	0.000000	0.000000	0.000000	19.484852	26.269011	9.764038	1.000000
253	0.000000	0.000000	0.000000	18.438900	27.009851	9.413703	1.000000
[LCollarBone]
#Fr	Tx	Ty	Tz	Rx	Ry	Rz	SF
250	0.000000	0.000000	0.000000	-0.551229	0.083624	-7.511476	1.000000
251	0.000000	0.000000	0.000000	-0.857642	-0.041506	-7.313046	1.000000
252	0.000000	0.000000	0.000000	-0.968349	-0.092824	-7.003562	1.000000
253	0.000000	0.000000	0.000000	-0.939828	-0.091015	-6.663419	1.000000
[RCollarBone]
#Fr	Tx	Ty	Tz	Rx	Ry	Rz	SF
250	0.000000	0.000000	0.000000	4.514237	-0.686038	2.200839	1.000000
251	0.000000	0.000000	0.000000	5.312081	-0.788718	1.561711	1.000000
252	0.000000	0.000000	0.000000	5.903208	-0.844203	0.879263	1.000000
253	0.000000	0.000000	0.000000	6.167884	-0.838560	0.127248	1.000000
[LUpArm]
#Fr	Tx	Ty	Tz	Rx	Ry	Rz	SF
250	0.000000	0.000000	0.000000	-17.298281	-4.728343	11.278162	1.000000
251	0.000000	0.000000	0.000000	-18.313051	-3.014402	6.518779	1.000000
252	0.000000	0.000000	0.000000	-19.636538	-2.104602	1.759821	1.000000
253	0.000000	0.000000	0.000000	-21.034781	-1.666123	-2.992545	1.000000
[RUpArm]
#Fr	Tx	Ty	Tz	Rx	Ry	Rz	SF
250	0.000000	0.000000	0.000000	-1.171261	-5.073691	6.537813	1.000000
251	0.000000	0.000000	0.000000	0.249366	-5.651942	2.515003	1.000000
252	0.000000	0.000000	0.000000	2.058525	-6.350427	-1.694062	1.000000
253	0.000000	0.000000	0.000000	4.406447	-6.999174	-6.196500	1.000000
[LLowArm]
#Fr	Tx	Ty	Tz	Rx	Ry	Rz	SF
250	0.000000	0.000000	0.000000	12.098898	-1.860610	0.060919	1.000000
251	0.000000	0.000000	0.000000	9.541182	-1.466957	0.080838	1.000000
252	0.000000	0.000000	0.000000	6.940856	-1.066159	0.083052	1.000000
253	0.000000	0.000000	0.000000	4.245627	-0.651026	0.066150	1.000000
[RLowArm]
#Fr	Tx	Ty	Tz	Rx	Ry	Rz	SF
250	0.000000	0.000000	0.000000	21.749472	1.879793	0.331698	1.000000
251	0.000000	0.000000	0.000000	26.002079	2.225011	0.478380	1.000000
252	0.000000	0.000000	0.000000	30.086441	2.545326	0.642971	1.000000
253	0.000000	0.000000	0.000000	33.801605	2.825720	0.812138	1.000000
[LHand]
#Fr	Tx	Ty	Tz	Rx	Ry	Rz	SF
250	0.000000	0.000000	0.000000	10.542487	-21.885283	8.224116	1.000000
251	0.000000	0.000000	0.000000	11.739404	-22.150162	6.551821	1.000000
252	0.000000	0.000000	0.000000	12.627776	-22.219339	4.819683	1.000000
253	0.000000	0.000000	0.000000	12.947957	-22.072987	3.266826	1.000000
[RHand]
#Fr	Tx	Ty	Tz	Rx	Ry	Rz	SF
250	0.000000	0.000000	0.000000	-5.953009	-0.309255	-10.631832	1.000000
251	0.000000	0.000000	0.000000	-6.359550	-0.479557	-11.331866	1.000000
252	0.000000	0.000000	0.000000	-6.053232	0.020589	-11.954548	1.000000
253	0.000000	0.000000	0.000000	-4.556879	1.343936	-12.448112	1.000000
[LPelvis]
#Fr	Tx	Ty	Tz	Rx	Ry	Rz	SF
250	0.000000	0.000000	0.000000	0.000000	0.000000	0.000000	1.000000
251	0.000000	0.000000	0.000000	0.000000	0.000000	0.000000	1.000000
252	0.000000	0.000000	0.000000	0.000000	0.000000	0.000000	1.000000
253	0.000000	0.000000	0.000000	0.000000	0.000000	0.000000	1.000000
[RPelvis]
#Fr	Tx	Ty	Tz	Rx	Ry	Rz	SF
250	0.000000	0.000000	0.000000	0.000000	0.000000	0.000000	1.000000
251	0.000000	0.000000	0.000000	0.000000	0.000000	0.000000	1.000000
252	0.000000	0.000000	0.000000	0.000000	0.000000	0.000000	1.000000
253	0.000000	0.000000	0.000000	0.000000	0.000000	0.000000	1.000000
[LThigh]
#Fr	Tx	Ty	Tz	Rx	Ry	Rz	SF
250	0.000000	0.000000	0.000000	50.053493	2.430605	-13.988470	1.000000
251	0.000000	0.000000	0.000000	47.613407	0.501108	-14.286405	1.000000
252	0.000000	0.000000	0.000000	45.422989	-1.404241	-14.237370	1.000000
253	0.000000	0.000000	0.000000	43.865021	-3.145958	-13.879927	1.000000
[RThigh]
#Fr	Tx	Ty	Tz	Rx	Ry	Rz	SF
250	0.000000	0.000000	0.000000	-6.084204	6.779457	-2.651335	1.000000
251	0.000000	0.000000	0.000000	-8.570600	4.799650	-2.724983	1.000000
252	0.000000	0.000000	0.000000	-10.724367	2.708314	-2.379564	1.000000
253	0.000000	0.000000	0.000000	-12.618012	0.629541	-1.645903	1.000000
[LLowLeg]
#Fr	Tx	Ty	Tz	Rx	Ry	Rz	SF
250	0.000000	0.000000	0.000000	-20.633728	1.704222	0.132818	1.000000
251	0.000000	0.000000	0.000000	-10.973348	0.900713	0.147277	1.000000
252	0.000000	0.000000	0.000000	-3.216186	0.260819	0.061005	1.000000
253	0.000000	0.000000	0.000000	1.407686	-0.112992	-0.031286	1.000000
[RLowLeg]
#Fr	Tx	Ty	Tz	Rx	Ry	Rz	SF
250	0.000000	0.000000	0.000000	-22.165203	-1.249139	-0.086106	1.000000
251	0.000000	0.000000	0.000000	-20.073362	-1.130925	-0.098728	1.000000
252	0.000000	0.000000	0.000000	-18.377100	-1.034774	-0.105790	1.000000
253	0.000000	0.000000	0.000000	-17.317343	-0.974611	-0.108755	1.000000
[LFoot]
#Fr	Tx	Ty	Tz	Rx	Ry	Rz	SF
250	0.000000	0.000000	0.000000	6.223657	0.502459	3.682161	1.000000
251	0.000000	0.000000	0.000000	5.354620	0.321807	2.751400	1.000000
252	0.000000	0.000000	0.000000	4.244880	0.309242	2.181558	1.000000
253	0.000000	0.000000	0.000000	3.566940	0.323486	1.911973	1.000000
[RFoot]
#Fr	Tx	Ty	Tz	Rx	Ry	Rz	SF
250	0.000000	0.000000	0.000000	-26.374086	-3.160933	4.042603	1.000000
251	0.000000	0.000000	0.000000	-34.351185	-2.007578	5.471749	1.000000
252	0.000000	0.000000	0.000000	-41.456734	-0.568483	6.145217	1.000000
253	0.000000	0.000000	0.000000	-46.682903	0.609202	6.216911	1.000000
[Neck]
#Fr	Tx	Ty	Tz	Rx	Ry	Rz	SF
250	0.000000	0.000000	0.000000	5.287153	-1.597551	-4.263205	1.000000
251	0.000000	0.000000	0.000000	5.615977	-1.108859	-4.337363	1.000000
252	0.000000	0.000000	0.000000	5.907848	-0.604113	-4.433410	1.000000
253	0.000000	0.000000	0.000000	6.152035	-0.096059	-4.549510	1.000000
[Head]
#Fr	Tx	Ty	Tz	Rx	Ry	Rz	SF
250	0.000000	0.000000	0.000000	10.174443	3.666172	-8.391366	1.000000
251	0.000000	0.000000	0.000000	10.730483	4.567687	-7.851742	1.000000
252	0.000000	0.000000	0.000000	11.229653	5.558169	-7.328132	1.000000
253	0.000000	0.000000	0.000000	11.557695	6.586905	-6.868136	1.000000
[EndOfFile]
